<?xml version="1.0" encoding="utf-8"?>
<!-- Generator: Adobe Illustrator 22.1.0, SVG Export Plug-In . SVG Version: 6.00 Build 0)  -->
<svg version="1.1" id="Слой_1" xmlns="http://www.w3.org/2000/svg" xmlns:xlink="http://www.w3.org/1999/xlink" x="0px" y="0px"
	 viewBox="0 0 354.5 334.2" style="enable-background:new 0 0 354.5 334.2;" xml:space="preserve">
<path d="M67.5,27.1c-20.2,0-40,0-60.2,0c0-6.7,0-13.1,0-19.9c1.3-0.1,2.7-0.3,4.1-0.3c21.5,0,43,0,64.5,0c6.8,0,10.5,3,11.4,9.9
	c1.1,8.1,1.8,16.2,2.6,24.3c0.2,1.8,0.5,3.6,0.7,5.7c2.4,0,4.3,0,6.3,0c79.2,0,158.3,0,237.5,0c9.9,0,12.5,2.6,12.5,12.3
	c0,32,0,64,0,96c0,8.4-2.1,11-10.2,12.7c-64.2,13.4-128.4,26.7-192.6,40.1c-12.1,2.5-24.1,5.1-36.2,7.5c-2.8,0.5-4.2,1.8-5.2,4.5
	c-3.3,8.8-6.7,17.6-10.4,27c2.8,0,4.8,0,6.7,0c69.2,0,138.3,0,207.5,0c20.4,0,38.1,15.2,40.2,34.5c2.3,21.8-10.7,40.8-31.5,45
	c-15.4,3.1-28.8-1.1-39.1-13.3c-10.3-12.1-12-25.9-6.9-40.8c0.5-1.5,1.2-3,1.9-4.9c-56.3,0-112.3,0-167.4,0c1.1,7.1,2.9,14.2,3,21.3
	c0.4,20.6-19.1,39.3-40.8,38.5c-21.2-0.8-38.6-17.7-39.5-38.6c-1-24.5,20.4-43,40.2-41.9c1.5,0.1,4-1.6,4.6-3.1
	c4.9-11.7,9.7-23.4,13.9-35.3c1.2-3.4,0.6-7.5,0.2-11.3C80.1,143.9,74.5,90.8,68.8,37.6C68.5,34.3,68,31,67.5,27.1z M86.5,286.8
	c-0.1-10.8-9-19.6-19.8-19.4c-10.6,0.1-19.2,8.8-19.3,19.4c-0.1,10.7,8.9,19.8,19.6,19.8C77.6,306.7,86.6,297.6,86.5,286.8z
	 M306.8,267.4c-10.8,0.1-19.5,9-19.3,19.9c0.2,10.5,9.1,19.3,19.5,19.4c10.6,0,19.6-9.1,19.6-19.8
	C326.5,276,317.6,267.3,306.8,267.4z"/>
</svg>
