<?xml version="1.0" encoding="utf-8"?>
<!-- Generator: Adobe Illustrator 22.1.0, SVG Export Plug-In . SVG Version: 6.00 Build 0)  -->
<svg version="1.1" id="Слой_1" xmlns="http://www.w3.org/2000/svg" xmlns:xlink="http://www.w3.org/1999/xlink" x="0px" y="0px"
	 viewBox="0 0 362 340.7" style="enable-background:new 0 0 362 340.7;" xml:space="preserve">
<style type="text/css">
	.st0{fill:#01C519;}
</style>
<g>
	<path class="st0" d="M96.2,250.3c2.6,0,4.4,0,6.2,0c69.3,0,138.7,0,208,0c20.9,0,38.5,15.4,40.4,35.4c2.1,21.7-11.9,40.6-33.2,44.1
		c-15.1,2.5-28.1-2.3-37.8-14.3c-9.7-12-11.4-25.5-6.2-40c0.6-1.5,1.3-3,2-4.9c-56.5,0-112.7,0-169.5,0c3.2,6.8,5,13.8,4.8,21.4
		c-0.5,20.7-18.4,38.2-39.7,38.2c-21.8,0-39.6-17.2-40.5-38c-1-24.5,19.9-43.1,40.5-41.9c2.4,0.1,3.5-0.7,4.4-2.9
		c4.7-12.1,9.5-24.1,14.2-36.2c0.6-1.4,0.8-2.8,0.6-4.4C85.5,159,80.4,111.2,75.3,63.3c-1-9.6-2.2-19.2-3-28.8
		c-0.3-3.4-1.3-4.3-4.7-4.3c-17.3,0.2-34.7,0-52,0.2c-3.7,0-5-0.8-4.7-4.6c0.4-4,0.2-8,0-12c-0.1-2.5,0.4-3.5,3.2-3.5
		c22.3,0.1,44.7,0,67,0.1c5.3,0,9.2,3.7,9.9,9.4c1.1,8.4,2.2,16.9,2.6,25.3c0.2,4.4,1.7,5.3,5.9,5.3c79.7-0.1,159.3-0.1,239-0.1
		c2.3,0,4.6-0.3,6.9,0.8c3.7,1.8,5.5,4.7,5.5,8.7c0,33.7,0,67.3,0,101c0,5.3-2.6,8.4-8.3,9.6c-23.4,5-46.9,9.9-70.3,14.8
		c-53.4,11.1-106.9,22.2-160.3,33.3c-2.7,0.6-4.2,1.7-5.2,4.4C103.5,231.9,99.9,240.8,96.2,250.3z M90.8,290.5
		c0.1-10.8-8.6-19.8-19.4-20.1c-11-0.2-20.2,8.7-20.3,19.6c-0.1,10.9,9,20.2,19.9,20.1C81.7,310.2,90.7,301.2,90.8,290.5z
		 M330.8,290.1c-0.1-10.7-9.1-19.6-19.8-19.6c-11,0-20,9.1-19.9,20.1c0.1,10.7,9.2,19.7,19.8,19.7
		C321.8,310.2,330.9,301,330.8,290.1z"/>
</g>
</svg>
