<?xml version="1.0" encoding="utf-8"?>
<!-- Generator: Adobe Illustrator 22.1.0, SVG Export Plug-In . SVG Version: 6.00 Build 0)  -->
<svg version="1.1" id="Слой_1" xmlns="http://www.w3.org/2000/svg" xmlns:xlink="http://www.w3.org/1999/xlink" x="0px" y="0px"
	 viewBox="0 0 25.6 20.1" style="enable-background:new 0 0 25.6 20.1;" xml:space="preserve">
<style type="text/css">
	.st0{fill:#99ED6C;}
	.st1{fill:#FCFEFB;}
	.st2{fill:#F4FCF0;}
	.st3{fill:#98ED6A;}
	.st4{fill:#C6F4AB;}
</style>
<path class="st0" d="M12.5,18.3c-2.4,0-4.9-0.1-7.3,0c-2,0.1-2.9-0.7-2.9-2.8c0.1-3.6,0.1-7.2,0-10.8c0-2,0.6-3,2.7-2.9
	c5.1,0.1,10.2,0.1,15.3,0c2.2,0,3,1,3,3.1c-0.1,3.4-0.1,6.8,0,10.2c0.1,2.3-0.9,3.3-3.2,3.2C17.5,18.2,15,18.3,12.5,18.3z"/>
<path class="st1" d="M12.9,10c1.6,0,3.2,0,4.8,0c4.1,0,5.2,1.6,4.2,5.6c-0.3,1.2-1.2,1.3-2.2,1.3c-4.7,0-9.3,0-14,0
	c-3.4,0-1.8-2.7-2.1-4.3C3.3,11,3.8,9.9,6,10C8.3,10.2,10.6,10,12.9,10z"/>
<path class="st2" d="M12.8,6.1c-2.4,0-4.9,0-7.3,0c-1,0-1.9-0.3-1.8-1.6c0.1-1.1,0.8-1.4,1.8-1.4c4.9,0,9.7,0,14.6,0
	c1.1,0,1.9,0.4,1.8,1.6c0,1.1-0.8,1.4-1.8,1.4C17.7,6.1,15.2,6.1,12.8,6.1z"/>
<path class="st3" d="M11,15.7c-0.6-0.1-1.7,0.2-1.5-1c0.2-1,1.2-0.6,1.9-0.6c0.7,0,1.8-0.1,1.7,0.8C12.9,16,11.8,15.5,11,15.7z"/>
<path class="st4" d="M7.9,14.8c-0.2,1-0.9,0.9-1.7,0.9c-0.7,0-1.4-0.2-1.3-0.9c0-1,0.9-0.9,1.6-0.9C7.3,13.9,7.8,14,7.9,14.8z"/>
</svg>
