<?xml version="1.0" encoding="utf-8"?>
<!-- Generator: Adobe Illustrator 22.1.0, SVG Export Plug-In . SVG Version: 6.00 Build 0)  -->
<svg version="1.1" id="Слой_1" xmlns="http://www.w3.org/2000/svg" xmlns:xlink="http://www.w3.org/1999/xlink" x="0px" y="0px"
	 viewBox="0 0 532.6 407.7" style="enable-background:new 0 0 532.6 407.7;" xml:space="preserve">
<g>
	<path d="M11.8,74c127.5,0,254.9,0,382.8,0c0-21.4,0-42.5,0-64.9c3.7,2.2,6.7,3.7,9.3,5.7c21.7,15.6,43.4,31.4,65.1,47
		c14.7,10.6,29.5,21,44.4,31.3c4,2.8,1.8,4.1-0.7,5.9c-10.7,7.5-21.4,14.9-31.9,22.5c-19.5,14-38.9,28.2-58.3,42.3
		c-7.4,5.4-14.8,10.8-22.2,16.1c-1.4,1-3.1,1.6-5.3,2.8c0-22,0-43,0-63.7c-128.1,0-255.6,0-383.2,0C11.8,104,11.8,89,11.8,74z"/>
	<path d="M520.8,333.7c-127.5,0-254.9,0-382.8,0c0,21.4,0,42.5,0,64.9c-3.7-2.2-6.7-3.7-9.3-5.7c-21.7-15.6-43.4-31.4-65.1-47
		c-14.7-10.6-29.5-21-44.4-31.3c-4-2.8-1.8-4.1,0.7-5.9c10.7-7.5,21.4-14.9,31.9-22.5c19.5-14,38.9-28.2,58.3-42.3
		c7.4-5.4,14.8-10.8,22.2-16.1c1.4-1,3-1.6,5.3-2.8c0,22,0,43,0,63.7c128.1,0,255.6,0,383.2,0C520.8,303.7,520.8,318.7,520.8,333.7z
		"/>
</g>
</svg>
