<?xml version="1.0" encoding="utf-8"?>
<!-- Generator: Adobe Illustrator 22.1.0, SVG Export Plug-In . SVG Version: 6.00 Build 0)  -->
<svg version="1.1" id="Слой_1" xmlns="http://www.w3.org/2000/svg" xmlns:xlink="http://www.w3.org/1999/xlink" x="0px" y="0px"
	 viewBox="0 0 1920 1080" style="enable-background:new 0 0 1920 1080;" xml:space="preserve">
<g>
	<path d="M607.1,553.5c-0.2-0.2-0.4-0.3-0.5-0.5c-0.4-0.5-0.1-1.2,0.5-1.4c0.2-0.1,0.4-0.1,0.6-0.1c3.7,0,7.4,0,11.1,0
		c0.4,0,0.5-0.1,0.5-0.5c0-7.3,0-14.7,0-22c0-0.4-0.1-0.5-0.5-0.5c-3.7,0-7.3,0-11,0c-0.5,0-0.9,0-1.3-0.4c-0.3-0.5-0.2-1.1,0.3-1.4
		c0.1,0,0.1-0.1,0.2-0.2c4.3,0,8.6,0,13,0c0.2,0.1,0.4,0.2,0.6,0.3c0.6,0.4,0.8,1,0.8,1.7c0,7.6,0,15.2,0,22.8c0,0.1,0,0.2,0,0.4
		c-0.1,0.7-0.3,1.3-1.1,1.6c-0.1,0-0.1,0.1-0.2,0.2C615.7,553.5,611.4,553.5,607.1,553.5z"/>
	<path d="M600,534.6c1.1,0,2.1,0,3.2,0c0.5,0,0.5,0,0.5-0.5c0-0.6,0-1.3,0.4-1.9c0.9-1.3,2.6-1.6,3.9-0.5c2.3,2.1,4.6,4.2,7,6.3
		c1.1,1,1.2,2.8,0,3.9c-1.8,1.6-3.6,3.3-5.4,4.9c-0.6,0.5-1.2,1.1-1.8,1.6c-1.3,1.1-3.1,0.6-3.9-0.8c-0.3-0.5-0.3-1.1-0.3-1.6
		c0-0.5-0.1-0.6-0.6-0.6c-1.9,0-3.8,0-5.7,0c-0.9,0-1.7-0.3-2.3-1.1c-0.4-0.5-0.5-1-0.5-1.6c0-1.9,0-3.8,0-5.6c0-1,0.4-1.8,1.3-2.3
		c0.4-0.2,0.8-0.3,1.2-0.3C598.1,534.5,599.1,534.6,600,534.6C600,534.6,600,534.6,600,534.6z M601.1,543.5
		C601.1,543.5,601.1,543.5,601.1,543.5c1.3,0,2.6,0,3.8,0c0.5,0,0.7,0.2,0.7,0.7c0,0.7,0,1.4,0,2c0,0.3,0.1,0.5,0.4,0.7
		c0.3,0.1,0.5,0,0.7-0.2c2.2-2,4.5-4.1,6.7-6.1c0.5-0.5,0.5-0.8,0-1.3c-0.9-0.8-1.9-1.7-2.8-2.5c-1.3-1.2-2.5-2.3-3.8-3.5
		c-0.2-0.2-0.5-0.4-0.9-0.2c-0.3,0.1-0.3,0.4-0.3,0.7c0,0.7,0,1.3,0,2c0,0.4-0.2,0.6-0.6,0.6c-0.1,0-0.3,0-0.4,0c-2.4,0-4.9,0-7.3,0
		c-0.6,0-0.8,0.2-0.8,0.8c0,1.8,0,3.6,0,5.4c0,0.6,0.2,0.8,0.8,0.8C598.6,543.5,599.9,543.5,601.1,543.5z"/>
</g>
</svg>
