<?xml version="1.0" encoding="utf-8"?>
<!-- Generator: Adobe Illustrator 22.1.0, SVG Export Plug-In . SVG Version: 6.00 Build 0)  -->
<svg version="1.1" id="Слой_1" xmlns="http://www.w3.org/2000/svg" xmlns:xlink="http://www.w3.org/1999/xlink" x="0px" y="0px"
	 viewBox="0 0 334.3 337.9" style="enable-background:new 0 0 334.3 337.9;" xml:space="preserve">
<g>
	<path d="M156.7,325.7c-1.9-2.1-4.1-4-5.7-6.3c-4.2-6.2-1-14.3,6.2-16.2c2.3-0.6,4.9-0.9,7.3-0.9c42.8,0,85.7-0.1,128.5,0.1
		c4.5,0,5.8-1.4,5.8-5.8c-0.1-85.2-0.1-170.5,0-255.6c0-4.5-1.5-5.8-5.8-5.7c-42.3,0.2-84.8,0.1-127.1,0.1c-5.3,0-10.9,0.5-14.7-4.8
		c-3.9-5.5-2.6-12.6,3.2-16.2c0.8-0.6,1.5-1.5,2.2-2.2c50.1,0,100.3,0,150.4,0c2.1,1.3,4.4,2.6,6.4,4c7.1,4.9,8.8,12.2,8.8,20.2
		c0,88.3,0,176.6,0,264.8c0,1.4,0.1,2.8-0.1,4.2c-0.8,8.5-4,15.4-12.9,18.4c-0.8,0.3-1.5,1.4-2.2,2.1
		C256.9,325.7,206.8,325.7,156.7,325.7z"/>
	<path d="M74.9,105.9c12.3,0,24.4,0,36.7,0c5.4,0,5.8-0.6,6-6.1c0.3-7.5,0.4-14.9,5.2-21.6c10.7-14.9,30.7-18.5,45.1-5.4
		c27,24.4,53.8,49.1,80.9,73.5c12.9,11.7,13.6,32.7,0.3,44.7c-20.8,18.8-41.5,38-62.2,56.9c-6.9,6.2-13.6,12.5-20.7,18.5
		c-14.9,12.3-36,6.7-44.7-8.9c-3.3-5.9-3.5-12.3-3.6-18.8c-0.1-5.9-0.7-6.7-6.7-6.7c-22.1,0-44.3-0.1-66.4,0
		c-11,0.1-20.1-3.3-27-12.3c-4.1-5.5-5.7-11.6-5.7-18.1c-0.1-21.8,0-43.6,0-65.5c0-11.8,5.1-21,15.5-26.5c4.2-2.2,9.3-3.3,14-3.6
		C52.5,105.5,63.7,105.9,74.9,105.9L74.9,105.9z M87.9,208.9C87.9,208.9,87.9,209,87.9,208.9c14.9,0,29.7,0,44.6,0
		c6,0,8.4,2.4,8.4,8.4c0.1,7.9,0.1,15.8,0,23.7c-0.1,3.7,1.3,6.2,4.5,7.8c3.2,1.7,5.7-0.1,7.9-2c26-23.5,52-47.1,77.9-70.6
		c6.2-5.7,6-9.3-0.1-14.9c-10.8-9.7-21.5-19.5-32.2-29.2c-14.7-13.5-29.3-26.9-44-40.4c-2.9-2.6-6.1-4.5-10-2.8
		c-3.7,1.7-3.9,5.1-3.8,8.6c0.1,7.7,0.1,15.5,0,23.2c0,4.9-2.1,7.1-6.9,7.4c-1.7,0.1-3.4,0.1-5.1,0.1c-28.1,0-56.3,0-84.5,0.1
		c-6.4,0-9,2.7-9,9c0,20.9,0,41.8,0,62.7c0,6.7,2.1,8.8,8.9,8.8C58.7,209,73.3,208.9,87.9,208.9z"/>
</g>
</svg>
