<?xml version="1.0" encoding="utf-8"?>
<!-- Generator: Adobe Illustrator 22.1.0, SVG Export Plug-In . SVG Version: 6.00 Build 0)  -->
<svg version="1.1" id="Слой_1" xmlns="http://www.w3.org/2000/svg" xmlns:xlink="http://www.w3.org/1999/xlink" x="0px" y="0px"
	 viewBox="0 0 517.6 984.7" style="enable-background:new 0 0 517.6 984.7;" xml:space="preserve">
<g>
	<path d="M308.9,967.3c-67,0-133.3,0-200.1,0c0-149.9,0-299.7,0-449.8c-33.4,0-66.4,0-99.7,0c0-50.1,0-99.8,0-149.8
		c33.2,0,66.4,0,100.2,0c0-1.6,0-3,0-4.5c0-39.6-0.3-79.2,0.1-118.9c0.2-19.6,1.1-39.2,3.2-58.7c3.2-30.4,11.4-59.5,27.2-86
		c20.6-34.3,51.1-55.7,88.6-67.9c30.7-10,62.4-13.6,94.5-13.8c61-0.4,122-0.4,183-0.5c0.7,0,1.5,0.1,2.4,0.1c0,50,0,99.7,0,149.9
		c-1.6,0-3.1,0-4.6,0c-42.7,0-85.5-0.2-128.2,0.2c-10.5,0.1-21.2,1.3-31.5,3.6c-20.6,4.6-31.2,16.8-33.6,37.9
		c-1.2,10.1-1.7,20.4-1.7,30.6c-0.2,41.2-0.1,82.5-0.1,123.7c0,1.1,0,2.2,0,3.9c58.4,0,116.6,0,174.9,0c-8.4,50.2-16.7,99.9-25,150
		c-49.9,0-99.7,0-149.9,0C308.9,667.5,308.9,817.1,308.9,967.3z"/>
</g>
</svg>
