<?xml version="1.0" encoding="utf-8"?>
<!-- Generator: Adobe Illustrator 22.1.0, SVG Export Plug-In . SVG Version: 6.00 Build 0)  -->
<svg version="1.1" id="Слой_1" xmlns="http://www.w3.org/2000/svg" xmlns:xlink="http://www.w3.org/1999/xlink" x="0px" y="0px"
	 viewBox="0 0 306.7 643.1" style="enable-background:new 0 0 306.7 643.1;" xml:space="preserve">
<path d="M209,11.5c-5.2,14.4-10.6,28.7-15.6,43.1c-14.1,40-28.1,80.1-42.1,120.1c-0.4,1-0.5,2.2-1,4.2
	c50.3-13.1,99.9-26.1,150.9-39.4C225.4,304.3,150,467.9,74.6,631.6c-0.4-0.1-0.8-0.2-1.2-0.4C100.8,511.1,128.2,391,156,269.7
	c-50.6,13.8-100.3,27.3-150.5,41c0.1-1.5,0-2.4,0.2-3.3C18.8,253.7,31.9,200,45,146.3c6.5-26.9,13.1-53.7,19.3-80.6
	c4.2-18,7.8-36.1,11.7-54.2C120.3,11.5,164.7,11.5,209,11.5z"/>
</svg>
