<?xml version="1.0" encoding="utf-8"?>
<!-- Generator: Adobe Illustrator 22.1.0, SVG Export Plug-In . SVG Version: 6.00 Build 0)  -->
<svg version="1.1" id="Слой_1" xmlns="http://www.w3.org/2000/svg" xmlns:xlink="http://www.w3.org/1999/xlink" x="0px" y="0px"
	 viewBox="0 0 574 650.8" style="enable-background:new 0 0 574 650.8;" xml:space="preserve">
<style type="text/css">
	.st0{fill:#FD824A;}
	.st1{fill:#D7825B;}
</style>
<g>
	<path class="st0" d="M432,12.4c8.3,0,16.7,0,25,0c0.7,1.3,2,0.8,3.1,1c22.9,4.4,40.6,16.2,51.3,37.2c10.8,21.2,10.9,43.5,4.4,65.9
		c-10.5,36.4-34.7,62.4-64.7,83.9c-1,0.2-2.1,0.4-2.2,1.6c-0.1,1.4,1.2,1.4,2.1,1.4c1.3,0.1,2.7,0.1,4,0.1c33.6,0,67.3,0,100.9,0
		c7.2,0,7.2,0,7.2,7.1c0,49.9,0,99.9,0,149.8c-10.5,0-21,0-31.5,0.1c-7.5,0-7.6,0-7.6,7.5c0,90.1,0,180.3,0,270.4
		c-158,0-316,0-474,0c0-44.8,0-89.6,0-134.5c0-45.3,0-90.6,0-136c0-7.4,0-7.4-7.6-7.4c-10.5,0-21,0-31.5-0.1c0-49.8,0-99.5,0-149.3
		c0-7.7,0-7.7,7.6-7.7c40.1,0,80.2,0,120.3,0c1.3,0,3.5,0.9,3.8-1.1c0.3-1.4-1.6-1.8-3-2c-9.9-4.9-18.6-11.5-27.1-18.4
		c-19.7-16-34.6-35.3-40.1-60.7C66.8,95.1,70.8,71,89.3,50.7c11.4-12.4,25.6-19.8,42.6-21.4c7.7,0,15.4,0,23,0c2,0.2,4,0.3,5.9,0.7
		c28.2,5.6,48.9,22.4,65.9,44.4c21.4,27.7,35,59.3,45,92.6c2.1,7,3.9,14,6.2,22.1c3-8.3,5.6-15.4,8.3-22.6
		c14.9-39.5,34.6-76.2,63.3-107.6c18.7-20.4,40.4-35.9,67.6-43C422.1,14.8,427.1,13.6,432,12.4z M50.2,321.6
		c1.8,1.1,3.9,0.7,5.9,0.7c61.6,0,123.3,0,184.9,0c2,0,4,0.3,5.9-0.8c1.3-1.8,1-3.8,1-5.8c0-22.5-0.1-45,0.1-67.4
		c0-4.9-1.6-6.2-6.3-6.2c-62.1,0.1-124.2,0.1-186.3,0c-4.8,0-6.3,1.4-6.3,6.2c0.2,22.5,0.1,45,0.1,67.4
		C49.2,317.9,48.9,319.9,50.2,321.6z M327.1,321.1c1.6,1.7,3.7,1.2,5.7,1.2c61.9,0,123.7,0,185.6,0c2,0,4,0.4,5.7-1.2
		c0.1-1.5,0.1-3,0.2-4.4c1.1-1.3,0.8-2.8,0.8-4.3c0-21.4,0-42.7,0-64.1c0-1.5,0.3-3-0.8-4.3c-1.6-1.8-3.7-1.1-5.6-1.1
		c-16-0.1-32,0-47.9,0c-45.9,0-91.9,0.1-137.8-0.1c-4.5,0-5.9,1.2-5.9,5.8C327.1,272.8,327,297,327.1,321.1z M247,470.1
		c0-41-0.1-82,0.1-122.9c0-4.4-1.3-5.6-5.6-5.6c-49,0.2-97.9,0.2-146.9,0c-4.6,0-5.5,1.5-5.5,5.7c0.1,81.6,0.1,163.2,0,244.9
		c0,5.2,1.5,6.3,6.4,6.3c48.5-0.2,96.9-0.2,145.4,0c5.4,0,6.2-1.8,6.2-6.5C247,551.4,247,510.8,247,470.1z M327,469.9
		c0,41,0.1,82-0.1,123c0,4.4,1.1,5.6,5.5,5.6c49-0.2,98-0.1,147,0c4,0,5.5-1,5.4-5.3c-0.1-82.2-0.1-164.3,0-246.5
		c0-3.9-1.1-5.1-5-5.1c-49,0.1-98,0.1-147-0.1c-5,0-6,1.7-5.9,6.3C327,388.6,327,429.2,327,469.9z M340.3,202.5
		c8.5,2,17.6-2.2,26.8-6.2c27.7-11.8,53.5-26.8,75.7-47.4c16.7-15.6,29.2-33.7,31.7-57.1c2.2-20.4-8.5-34.3-29.4-34.4
		c-14.4-0.1-27,5.1-38.8,12.4c-17.4,10.8-30.3,26.4-41.8,42.9c-18.5,26.5-31.5,55.8-41.7,86.3c-1,3.1,0.1,3.5,2.6,3.4
		C329.7,202.4,334,202.5,340.3,202.5z M231.2,189.1c-1.3-4.3-2.2-7.6-3.2-10.9c-7.8-25.5-18-50-33.8-71.8
		c-11.6-15.9-25-29.2-45.7-32.7c-19.7-3.4-35.8,11.8-33,31.6c2.2,15.5,9.9,27.6,21.3,37.7c16.5,14.6,35.5,25,55.8,33.3
		C204.8,181.4,217.3,185.8,231.2,189.1z"/>
	<path class="st1" d="M131.9,29.4c7.7-1.6,15.4-1.7,23,0C147.3,29.4,139.6,29.4,131.9,29.4z"/>
</g>
</svg>
