<?xml version="1.0" encoding="utf-8"?>
<!-- Generator: Adobe Illustrator 22.1.0, SVG Export Plug-In . SVG Version: 6.00 Build 0)  -->
<svg version="1.1" id="Слой_1" xmlns="http://www.w3.org/2000/svg" xmlns:xlink="http://www.w3.org/1999/xlink" x="0px" y="0px"
	 viewBox="0 0 393 313.4" style="enable-background:new 0 0 393 313.4;" xml:space="preserve">
<path d="M196.4,304.4c-20.8-33.5-50.9-57.6-84.8-77.6c-19.9-11.7-39.9-23.5-58.9-36.5c-17.3-11.9-30.4-27.8-37.1-48.2
	c-5.5-16.8-5-33.8-2.1-50.8c2.9-17.1,9.2-32.9,19.7-46.9c21.5-28.5,57.1-41.1,91.2-32.9c28.8,6.9,49.3,24.4,64.5,49
	c2.4,3.9,4.6,8,7.4,12.8c1.3-1.9,2.3-3.3,3.1-4.7c12.9-24.4,31.4-43.1,57.7-52.5c48.9-17.5,100.2,5.3,118,57
	c6.2,17.8,8.2,36.3,5.5,55.1c-2.9,20.4-13.2,36.6-27.9,50.5c-15.4,14.7-33.6,25.5-52,35.8c-32,18-61.5,39.1-86,66.6
	C208,288.4,202.4,296.7,196.4,304.4z"/>
</svg>
