<?xml version="1.0" encoding="utf-8"?>
<!-- Generator: Adobe Illustrator 22.1.0, SVG Export Plug-In . SVG Version: 6.00 Build 0)  -->
<svg version="1.1" id="Слой_1" xmlns="http://www.w3.org/2000/svg" xmlns:xlink="http://www.w3.org/1999/xlink" x="0px" y="0px"
	 viewBox="0 0 528 528" style="enable-background:new 0 0 528 528;" xml:space="preserve">
<style type="text/css">
	.st0{fill:#FE0101;}
	.st1{fill:#FE0303;}
</style>
<g>
	<path class="st0" d="M411,520c-41.3,0-82.7,0-124,0c-0.7-1.7-2.3-1-3.5-1.1c-14.6-1.4-29.1-2.9-43.6-5.5c-30-5.3-59.4-13-89-20
		c-3.1-0.7-4.6-0.4-6.3,2.6c-6.6,11.5-16.4,19-29.2,22.7c-1.5,0.4-3.4-0.3-4.5,1.4c-21.3,0-42.7,0-64,0c-0.4-1.5-1.9-1.2-2.9-1.5
		c-18-5.1-29.4-16.7-34.7-34.6c-0.3-1,0.1-2.5-1.5-2.9c0-91.3,0-182.7,0-274c1.5-0.4,1.2-1.9,1.5-2.9c7-23,24.5-36.1,48.6-36.1
		c13.7,0,27.3,0.3,41-0.1c12.7-0.4,24,3,34.1,10.6c1.3,1,2.2,1.5,3.9,0.7c22.4-10,42.3-23.2,56.1-44.1c15.8-24,22.2-50.6,22.8-79
		c0.5-22,14.1-40,35.2-46.3c1.3-0.4,3.1-0.1,3.8-1.8c5.3,0,10.7,0,16,0c9.2,2.8,18,6.2,25.8,12.1c20,15.1,32.7,35.2,40.2,58.8
		c9,28.4,6.7,57.3,2.5,86.1c-0.4,3.1,0.1,3.8,3,3.8c5.3-0.1,10.7,0.1,16,0.3c33.6,1.1,67.3,0.9,100.9,4c20,1.8,36.9,9.3,49.5,25.5
		c5.7,7.3,8.5,15.9,11.2,24.6c0,8,0,16,0,24c-1.1,0.3-1,1.2-1.1,2c-1.2,6.8-2.7,13.7-7,19c-4.9,6.1-4.4,11.3-2.2,18.6
		c7.9,25.8,0.5,48.8-16,69.3c-1.3,1.6-3.2,2.5-2.2,5.4c5.1,13.9,3.3,27.9-0.9,41.6c-4.7,15.3-10.9,29.7-24.5,39.5
		c-1.8,1.3-1.4,2.9-1.1,4.5c2.2,10.8,0.6,21.1-3.1,31.3c-6.9,19-19.1,32.4-38.7,38.7C419.2,518.2,414.9,518.1,411,520z M296.6,200.2
		c-0.1-0.7-0.3-1.1-0.2-1.3c0.4-1.3,0.8-2.5,1.3-3.8c9.4-25.1,14-50.9,13.3-77.7c-0.6-21.1-6.4-40.3-18.9-57.3
		c-5.5-7.5-11.8-14-20.4-18c-11.9-5.6-23.5,1.6-23.7,14.8c-0.3,14-1.8,27.9-5,41.6c-12.4,52.2-42.8,89.2-92.9,109.5
		c-10.7,4.3-14.1,8.7-14.1,20.2c0,71.5,0,143,0.1,214.5c0,10.7,3.1,14.9,13.8,17.6c18.5,4.6,37.2,9,55.7,13.5
		c34.4,8.4,69.2,14.1,104.6,14.4c30,0.2,60,0.1,90,0c19.1,0,27.5-6.4,33-24.7c3.9-13.1-3.4-23.1-17-23.2c-8-0.1-16,0.1-24-0.1
		c-5-0.1-8.3-3.5-8.2-8.2c0.1-4.4,3.3-7.5,8.1-7.8c1.7-0.1,3.3,0,5,0c11.3-0.3,22.7,0.8,33.9-0.9c9.6-1.5,18.1-4.9,23-14
		c4.8-9,7.9-18.7,8.6-29c0.6-10.3-4.8-17.1-14.9-19.3c-3-0.6-5.9-0.8-8.9-0.8c-9.7,0-19.3,0-29,0c-5.9,0-9.5-2.9-9.7-7.8
		c-0.2-5,3.6-8.2,9.7-8.2c12,0,24,0,36,0c16-0.1,26.4-7.4,31.9-22.4c1.6-4.4,2.7-9,3.2-13.6c1.8-14.4-6.8-25.7-21-27.8
		c-1.8-0.3-3.7-0.3-5.5-0.3c-9.3,0-18.7,0-28,0c-6.6,0-10.4-3-10.3-8.1c0.1-5.1,3.8-7.9,10.6-7.9c4.8,0,9.7,0.1,14.5,0
		c8.6-0.2,17.3,0.8,25.9-1c9.2-1.9,16.8-6,19.5-15.7c2.1-7.6,2.4-15.5,0.7-23.2c-1.7-7.7-6.3-13.1-13.5-16.3
		c-6.1-2.7-12.6-4.2-19.3-4.8c-28.2-2.8-56.6-2.4-84.9-2.7C345.2,199.9,320.9,200.2,296.6,200.2z M120,344c0-41.8,0-83.6,0-125.4
		c0-12.3-6.1-18.5-18.3-18.5c-14.5,0-29,0-43.5,0c-12,0-18.2,6.2-18.2,18.1c0,84,0,167.9,0,251.9c0,11.8,6.3,18,18.3,18
		c14.3,0,28.6,0,43,0c12.7,0,18.7-6,18.7-18.6C120,427.6,120,385.8,120,344z"/>
	<path class="st1" d="M79.9,424c13.1,0,24,10.6,24.1,23.6C104.2,461,93.4,472,80.1,472c-13.3,0-24.2-10.9-24.1-24.1
		C56.1,434.8,66.8,424.1,79.9,424z M88,448.2c0.1-4.3-3.3-8-7.6-8.2c-4.3-0.2-8.1,3.2-8.3,7.5c-0.3,4.5,3.4,8.4,7.9,8.5
		C84.2,456.1,87.9,452.5,88,448.2z"/>
</g>
</svg>
