<?xml version="1.0" encoding="utf-8"?>
<!-- Generator: Adobe Illustrator 22.1.0, SVG Export Plug-In . SVG Version: 6.00 Build 0)  -->
<svg version="1.1" id="Слой_1" xmlns="http://www.w3.org/2000/svg" xmlns:xlink="http://www.w3.org/1999/xlink" x="0px" y="0px"
	 viewBox="0 0 48.6 49" style="enable-background:new 0 0 48.6 49;" xml:space="preserve">
<style type="text/css">
	.st0{fill:#0AC420;}
	.st1{fill:#0BC421;}
	.st2{fill:#0EC424;}
	.st3{fill:#13C228;}
	.st4{fill:#13C428;}
	.st5{fill:#12C428;}
	.st6{fill:#14BF29;}
	.st7{fill:#11C226;}
	.st8{fill:#13C128;}
	.st9{fill:#12C427;}
</style>
<g>
	<path class="st0" d="M28,35.8c-0.1,0.6-0.4,0.8-0.8,1c-3.4,1.8-7,2.8-10.8,2.6c-4.2-0.2-7.2-2.6-9.8-5.6c-1.3-1.5-2.1-3.3-2.9-5.1
		c-0.2-0.5-0.5-1.1-0.9-1.6c-0.2-0.2-0.6-0.3-0.4-0.6c0.1-0.2,0.4-0.1,0.7-0.2c1.5-0.1,2.9-0.6,4.2-1.2c2.6-1.1,5.2-2.5,8.3-2.6
		c-1.1-1.9-1.8-3.7-2-5.6c-0.3-2.7,0.3-5.3,1.3-7.8C15.8,7,16.9,5,16.7,2.5c0.2,0.1,0.3,0.1,0.4,0.1c0.9,1.9,2.6,2.8,4.5,3.6
		c1.9,0.8,3.8,1.5,5.5,2.7c2.2,1.4,3.7,3.4,4.4,5.9c0.1,0.2-0.1,0.5,0.3,0.6c0.3,0,0.4-0.2,0.6-0.4c0.8-1.1,1.8-1.8,2.9-2.5
		c2.6-1.7,5.7-2.9,7-6.3c1,4.2,3.2,7.8,3.9,12c0.6,4.1-1.5,11.3-6.7,12.6c-1.7,0.4-3.1,1.6-4.4,2.9c-0.2,0.2-0.4,0.6-0.9,0.6
		c0.1-1.1,0.7-1.8,1.5-2.4c0.9-0.7,1.8-1.3,2.8-1.9c5.2-2.9,7.1-9.9,4.5-15.2c-0.6-1.2-1.2-2.4-1.8-3.7c-1.5,1.2-3.3,2-5,2.9
		c-1.6,0.8-3,1.8-3.9,3.4c-0.2,0.3-0.2,0.8-0.6,0.7c-0.4-0.1-0.3-0.6-0.4-0.9c-0.7-4-2.9-6.7-6.8-7.9c-0.9-0.3-1.8-0.6-2.7-0.8
		C20.6,8.3,19.7,8,19,7.4c-0.3-0.3-0.6-0.4-0.7,0.2c-0.4,1.7-1.2,3.2-1.8,4.8c-1.4,3.8-0.8,7.3,1.6,10.5c0.2,0.3,0.7,0.6,0.6,1.1
		c-0.3,0.2-0.5,0.1-0.7,0c-2.6-0.7-4.9,0-7.1,1.4c-1.6,1-3.1,2.3-5,2.7C10.7,38,18.4,39.6,28,35.8z"/>
	<path class="st1" d="M25.5,21.7c0,0.1,0,0.1,0,0.2c-0.3,0.3-0.2,0.7-0.2,1c0,0.1,0,0.3,0,0.4c-0.1,0.1-0.1,0.2-0.2,0.3c0,0,0,0,0,0
		c-0.3,0.2-0.3,0.5,0,0.7c0.7,4.9,3.7,8.2,7.7,10.8c3.9,2.5,4.6,6.2,4.4,10.4c0,0.7-0.5,1.2-1.3,1.1c-0.8-0.1-1-0.6-0.9-1.3
		c0.1-0.9,0.2-1.8,0.2-2.6c-0.1-2.5-1.3-4.4-3.3-5.8c-0.9-0.6-1.6-1.3-2.4-1.9c-3.6-2.8-5.5-6.6-5.9-11.1c0-0.5-0.2-0.9-0.2-1.4
		c0.1-2.1-1.3-2.9-2.9-3.6c-0.5-0.3-1.1-0.4-1.6-0.7c-0.7-0.4-1.4-0.9-1.6-1.8c0-0.3,0-0.5,0-0.8c0.1-0.1,0.2,0,0.3,0.1
		c0.1,0.1,0.2,0.2,0.3,0.3c0.1,0,0.1,0,0.1,0c0.1,0.2,0.3,0.2,0.6,0.2c1.8,0.4,3,1.5,3.8,3.1c0.1,0.3,0.3,0.5,0.6,0.3
		c0.2-0.1,0-0.4-0.1-0.5c-0.4-2.2-1.2-4.2-2.3-6.1c-0.4-0.7-0.8-1.3-0.4-2.4c0.6,1.7,1.8,2.8,2.7,4.5c0.2-1.6-1-3,0.4-4.4
		c0.4,1.8,1,3.4,0.2,5c-0.2,0.4,0,0.7,0.1,1c0.4,1.1,0.8,2.3,0.9,3.5c0,0.4-0.1,0.7,0.3,1c0.1,0,0.3,0,0.4,0
		c0.3-0.1,0.3-0.3,0.3-0.6c0.2-1.1,1-2,1.5-3c0.3-0.2,0.2-0.6,0.2-0.9c0,0,0,0,0,0c0.2-0.3,0.3-0.6,0.5-1c0.1,0.1,0.1,0.1,0,0.2
		c0,0.3-0.1,0.7,0.2,1c0,0.3,0,0.6,0,1c-0.2,0.2-0.2,0.4-0.2,0.6c-0.3,1.2-1.2,2-1.8,3C25.6,21.5,25.5,21.6,25.5,21.7z M24.8,21.8
		c-0.3,0.2-0.4,0.5-0.2,0.9c0,0,0.1,0,0.3,0.1C24.9,22.4,25.1,22.1,24.8,21.8z"/>
	<path class="st2" d="M40.1,23.1c-0.7,0.8-1.8,1-2.7,1.3c-1.2,0.4-2.3,1.1-3.4,1.7c-2.6,1.2-2.9,3.5-3.2,5.9c0,0.1-0.1,0.1-0.2,0.2
		c-0.5-0.5-0.4-1.2-0.4-1.9c0.1-2.4,1.3-4.3,2.6-6.1c0.4-0.5,1-0.9,1.1-1.6l0,0c1.4-0.9,2.3-2.3,3.5-3.5c1.1-1.1,2.1-2.3,2.3-4
		c0.6,0.9,0.6,1.9,0.1,3.1c-0.7,1.4-1.7,2.5-2.7,3.6c-0.6,0.7-1.2,1.3-1.9,2c0,0.1,0.1,0.2,0.1,0.3c0.1-0.1,0.1-0.2,0.2-0.3
		c0.4-0.1,0.9-0.2,1.3-0.3c0.2,0,0.4,0,0.6-0.2c0.2,0,0.4-0.1,0.5-0.1c0.3,0.1,0.5,0.1,0.7-0.1c0.4-0.1,0.7-0.2,1.1-0.3
		C39.7,22.8,40,22.9,40.1,23.1z"/>
	<path class="st3" d="M18,30c2.1,0.2,4.1,0.5,5.9,1.7c-2.4-0.8-4.9-0.5-7.3,0c-2.5,0.5-4.7-0.2-6.8-1.5c-0.1-0.1-0.2-0.2-0.2-0.6
		c2.1,0.8,4.2,0.7,6.4,0.5C16.7,30,17.4,30,18,30z"/>
	<path class="st4" d="M21.8,31.8c-1,0.4-1.6,1.3-2.3,2c-1.2,1.2-2.7,1.7-4.5,1.5c0-0.2,0.1-0.4,0.1-0.4c1.5-0.4,2.5-1.4,3.6-2.4
		C19.6,31.7,20.5,31.2,21.8,31.8z"/>
	<path class="st5" d="M16.5,29.6c-1.5-0.5-1.9-2.1-3-3C13.2,26.2,13.6,26,14,26c0.8,0,1.4,0.5,1.8,1.2c0.5,0.8,1,1.7,2,1.8
		c0.1,0,0.1,0.3,0.1,0.4C17.5,29.5,17,29.5,16.5,29.6z"/>
	<path class="st6" d="M33.9,22.6c-0.9,0.1-0.5-0.6-0.5-1c0.4-1.4,0.6-2.8,0.4-4.3c1.1,0.5,1.4,1.3,1.1,2.4
		C34.6,20.7,33.8,21.5,33.9,22.6C33.8,22.6,33.9,22.6,33.9,22.6z"/>
	<path class="st7" d="M40.1,23.1c-0.1-0.2-0.4-0.3-0.6-0.3c0.4-0.1,0.8-0.3,1.2-0.4C40.8,22.9,40.3,22.9,40.1,23.1z"/>
	<path class="st8" d="M27.3,15.6c-0.2,0.3-0.3,0.6-0.5,1c0-0.3-0.1-0.7,0-1C27,15.1,27.3,15.2,27.3,15.6z"/>
	<path class="st9" d="M22.6,19c0.2,0.1,0.3,0.4,0.1,0.5c-0.3,0.2-0.5,0-0.6-0.3C22.3,19.2,22.5,19.3,22.6,19z"/>
	<path class="st8" d="M27.6,16.8c-0.3-0.3-0.2-0.7-0.2-1C27.6,16.1,27.6,16.5,27.6,16.8z"/>
	<path class="st8" d="M25.2,22.9c0-0.3-0.1-0.7,0.2-1C25.4,22.2,25.4,22.6,25.2,22.9z"/>
	<path class="st9" d="M17,15.4c0,0.3,0,0.5,0,0.8C16.9,15.9,16.7,15.7,17,15.4z"/>
	<path class="st9" d="M18.3,16.1c-0.2,0-0.4,0-0.6-0.2C17.9,15.9,18.1,16,18.3,16.1z"/>
	<path class="st8" d="M27.4,18.4c0-0.2,0-0.4,0.2-0.6C27.6,18,27.6,18.2,27.4,18.4z"/>
	<path class="st7" d="M35.3,23.8c-0.1,0.1-0.1,0.2-0.2,0.3c0-0.1-0.1-0.2-0.1-0.3C35.1,23.8,35.2,23.8,35.3,23.8z"/>
	<path class="st8" d="M24.8,21.8c0.2,0.3,0.1,0.6,0,0.9c-0.1,0-0.2,0-0.3-0.1C24.4,22.3,24.5,22,24.8,21.8z"/>
</g>
</svg>
