<?xml version="1.0" encoding="utf-8"?>
<!-- Generator: Adobe Illustrator 22.1.0, SVG Export Plug-In . SVG Version: 6.00 Build 0)  -->
<svg version="1.1" id="Слой_1" xmlns="http://www.w3.org/2000/svg" xmlns:xlink="http://www.w3.org/1999/xlink" x="0px" y="0px"
	 viewBox="0 0 160.2 93.6" style="enable-background:new 0 0 160.2 93.6;" xml:space="preserve">
<g>
	<path d="M95.1,76.3c3.7-2.2,6.7-4.1,9.8-5.9c-0.1-0.2-0.1-0.4-0.2-0.6c-1.6,0.2-3.1,0.6-4.7,0.6c-2.2,0-4.4-0.4-6.6-0.6
		c0.6-2.2,1.1-4.5,1.9-6.7c0.5-1.3,1.4-2.5,1.7-4.4c-1.8,1.3-3.4,2.8-5.3,3.9c-1.3,0.8-3.3,1.8-4.2,1.2c-1-0.6-1.4-2.7-1.6-4.2
		c-0.2-2.6-0.1-5.3-0.1-9.1c-1.5,3.6-2.5,6.3-3.7,9c-1.4,3.2-3.3,3.6-5.4,0.6c-1.6-2.3-2.9-4.8-5-7.2c0.3,2.8,0.7,5.5,0.9,8.3
		c0.2,3.2-1.3,4.4-4.2,2.9c-2.8-1.4-5.4-3.1-9.3-5.4c2.6,3.4,4.5,5.7,6.2,8.2c1.8,2.6,1.3,4.4-2.1,4.6c-3,0.2-6,0-9.2,0.7
		c3,1.3,6,2.7,9,4c0,0.4,0,0.7,0,1.1c-3,0.2-6,0.4-9,0.6c0,0.1,0,0.3,0,0.4c3.2,0,6.3,0,9.8,0C54,91.8,27.2,90.1,7.8,75.3
		c4.3-7.9,11.6-9.3,36.9-6.4c-13-7.1-20.2-17.7-26.6-30.1c15.2-4.1,24.9,4.3,34.9,12.8c-6.6-11.9-7.9-24.6-6.9-38.4
		c14.8,3.6,18.8,15.7,23.5,27.6C70.1,27.5,75.2,16,82.9,4.5c10.9,10.9,8.4,23.5,6.4,36.4c7-11.6,17.4-18.9,29.7-25.1
		c4,15.4-4.6,25.2-13,35.2c11.8-6.9,24.5-8,38.5-7.2c-4,15.1-16.2,19.3-28.5,23.8c13.8,0.2,25.4,5.5,36.5,13
		C142.1,93.3,119.2,91.6,95.1,76.3z"/>
</g>
</svg>
