<?xml version="1.0" encoding="utf-8"?>
<!-- Generator: Adobe Illustrator 22.1.0, SVG Export Plug-In . SVG Version: 6.00 Build 0)  -->
<svg version="1.1" id="Слой_1" xmlns="http://www.w3.org/2000/svg" xmlns:xlink="http://www.w3.org/1999/xlink" x="0px" y="0px"
	 viewBox="0 0 98.9 69.2" style="enable-background:new 0 0 98.9 69.2;" xml:space="preserve">
<style type="text/css">
	.st0{fill:#FDFDFD;}
	.st1{fill:#00C518;}
</style>
<g>
	<path class="st0" d="M49.5,69.1c-16.2,0-32.3,0-48.5,0c-0.8,0-1-0.2-1-1C0,45.8,0,23.4,0,1c0-0.8,0.2-1,1-1c32.3,0,64.6,0,97,0
		c0.8,0,1,0.2,1,1c0,22.4,0,44.8,0,67.2c0,0.8-0.2,1-1,1C81.8,69.1,65.6,69.1,49.5,69.1z M49.3,57.4c1.6,0,3.3,0,4.9,0
		c9,0,18,0,27,0c2.3,0,4.5-2,4.5-4.2c0-10,0-20,0-30c0-1.2-0.4-1.4-1.5-0.9c-1.4,0.7-2.7,1.4-4,2.1c-8.9,4.7-17.7,9.5-26.6,14.2
		c-2.9,1.5-5.7,1.5-8.5,0c-10-5.4-20-10.7-30-16.1c-1.6-0.9-1.9-0.7-1.9,1.1c0,9.7,0,19.4,0,29c0,2.8,1.9,4.7,4.7,4.7
		C28.4,57.4,38.9,57.4,49.3,57.4z M49.5,9.6c-11.2,0-22.4,0-33.6,0c-0.4,0-0.7,0-1.1,0c-1.3,0.2-1.7,1-1.2,2.3
		c0.4,1.1,1.2,1.8,2.2,2.3c2.4,1.4,4.9,2.7,7.3,4c7,3.9,14,7.6,21,11.6c3.5,2,6.8,2.3,10.4,0.3c9-5.1,18.2-10,27.2-15
		c1-0.6,2.1-1,2.9-1.9c0.7-0.8,1.3-1.6,1-2.7c-0.4-1-1.5-0.9-2.4-0.9C71.9,9.6,60.7,9.6,49.5,9.6z"/>
	<path class="st1" d="M49.3,57.4c-10.5,0-20.9,0-31.4,0c-2.8,0-4.7-2-4.7-4.7c0-9.7,0-19.4,0-29c0-1.8,0.3-2,1.9-1.1
		c10,5.3,20,10.7,30,16.1c2.9,1.5,5.7,1.6,8.5,0c8.8-4.8,17.7-9.5,26.6-14.2c1.3-0.7,2.7-1.4,4-2.1c1.1-0.5,1.5-0.3,1.5,0.9
		c0,10,0,20,0,30c0,2.2-2.2,4.2-4.5,4.2c-9,0-18,0-27,0C52.6,57.4,51,57.4,49.3,57.4z"/>
	<path class="st1" d="M49.5,9.6c11.2,0,22.4,0,33.6,0c0.9,0,2-0.1,2.4,0.9c0.4,1-0.3,1.9-1,2.7c-0.8,0.9-1.9,1.3-2.9,1.9
		c-9.1,5-18.2,9.9-27.2,15c-3.6,2-6.9,1.7-10.4-0.3c-6.9-3.9-14-7.7-21-11.6c-2.4-1.3-4.9-2.7-7.3-4c-1-0.5-1.7-1.2-2.2-2.3
		c-0.5-1.2-0.1-2,1.2-2.3c0.4-0.1,0.7,0,1.1,0C27.1,9.6,38.3,9.6,49.5,9.6z"/>
</g>
</svg>
