<?xml version="1.0" encoding="utf-8"?>
<!-- Generator: Adobe Illustrator 22.1.0, SVG Export Plug-In . SVG Version: 6.00 Build 0)  -->
<svg version="1.1" id="Слой_1" xmlns="http://www.w3.org/2000/svg" xmlns:xlink="http://www.w3.org/1999/xlink" x="0px" y="0px"
	 viewBox="0 0 237 237" style="enable-background:new 0 0 237 237;" xml:space="preserve">
<style type="text/css">
	.st0{fill:#01C519;}
</style>
<path class="st0" d="M55,6c3.3,1.5,5.7,4,7.3,7.2c8.3,15.8,16.8,31.4,24.9,47.3c2.8,5.5,1.9,11-2.3,15.7c-3.1,3.4-6.4,6.8-9.9,9.9
	c-3.3,3-3.8,6.1-2.2,10.1c4.3,10.8,10.8,20.2,18.5,28.7c12.1,13.3,24.6,26.2,40.5,35.1c0.9,0.5,1.7,1.1,2.6,1.5
	c10.6,5.5,11.5,5.4,19.9-3.2c2.3-2.4,4.6-4.8,7-7.1c5.6-5.2,12.6-6.2,19.2-2.3c14.9,8.6,29.7,17.4,44.4,26.3c2.2,1.3,4,3.3,6.1,5
	c0,3,0,6,0,9c-1.3,2.8-3.4,4.9-5.6,6.9C212.8,207.5,202.1,221,188,231c-8,0-16,0-24,0c0-0.7-0.4-1.2-1.2-1.4
	c-20-3.8-37.4-13.2-54.3-24c-23.5-14.9-43.1-34.4-60.9-55.4c-18.6-22-33.8-46-40-74.8C7.4,74.5,7.1,73.9,6,74c0-8.7,0-17.3,0-26
	c3.4-2.1,4.6-6,7.4-8.7c10.2-9.8,20.1-19.8,30-29.9c1-1,2.6-1.6,2.5-3.4C49,6,52,6,55,6z"/>
</svg>
