<?xml version="1.0" encoding="utf-8"?>
<!-- Generator: Adobe Illustrator 22.1.0, SVG Export Plug-In . SVG Version: 6.00 Build 0)  -->
<svg version="1.1" id="Слой_1" xmlns="http://www.w3.org/2000/svg" xmlns:xlink="http://www.w3.org/1999/xlink" x="0px" y="0px"
	 viewBox="0 0 354 354" style="enable-background:new 0 0 354 354;" xml:space="preserve">
<style type="text/css">
	.st0{fill:#676767;}
</style>
<path class="st0" d="M346,309c0,5.7,0,11.3,0,17c-0.7-0.1-1.3,0.2-1.6,0.8c-3.2,8.5-8.9,14.4-17.5,17.6c-0.4,0.2-0.6,1-0.9,1.6
	c-5.7,0-11.3,0-17,0c0.1-1-0.5-1.6-1.4-1.8c-6.6-1.4-11.8-5.3-16.4-9.8c-11.9-11.4-23.4-23.1-35.1-34.7
	c-11.5-11.5-23-23.1-34.6-34.5c-2-2-4-4.5-7.7-2.4c-9.3,5.3-19,9.7-29.2,13.1c-12.6,4.2-25.6,6.5-38.6,6.7
	c-17.6,0.3-34.7-3-51.3-9.6c-14.7-5.9-27.8-14.1-39.9-24.2c-14.3-12-25.2-26.8-33.4-43.4c-4-8-7-16.5-9.2-25.4
	C11,174.7,11,168.9,8,164c0-12,0-24,0-36c0.7-0.2,0.9-0.8,1-1.5c1.8-14.5,5.9-28.4,12.3-41.4c10-20.3,24-37.5,42.5-50.9
	c14.4-10.3,29.9-17.9,47.3-22.1C116,11,121.6,11.5,126,8c12.3,0,24.7,0,37,0c1.5,1.8,3.5,2,5.7,2.1c8.8,0.4,17,3.6,25.2,6.5
	c10.2,3.6,19.6,8.9,28.7,14.7c0.8,0.6,1.6,1.2,2.4,1.8c1.7,1.2,3.4,2.5,5.1,3.7c0.7,0.6,1.4,1.1,2.1,1.7c11.3,9.5,21,20.5,29.1,32.9
	c7.2,11.1,12.4,23.2,16.4,35.8c2.6,8.1,3.1,16.6,4.4,24.9c2.6,17-0.8,33.5-4.9,49.7c-2.7,10.7-7.3,20.9-13.1,30.3
	c-2.9,4.7-1,7.1,2.1,10.1c19.9,19.8,39.7,39.7,59.5,59.6c7.9,7.9,16.1,15.4,19.2,26.7C344.8,308.8,345.6,308.9,346,309z
	 M144.9,245.6c54.3,1.4,100.9-44.6,101-100C246,90.1,201.5,44.5,145.6,44.3C89.9,44.1,44.5,88.1,44.2,144.9
	C44,199.4,87.8,246.2,144.9,245.6z"/>
</svg>
