<?xml version="1.0" encoding="utf-8"?>
<!-- Generator: Adobe Illustrator 22.1.0, SVG Export Plug-In . SVG Version: 6.00 Build 0)  -->
<svg version="1.1" id="Слой_1" xmlns="http://www.w3.org/2000/svg" xmlns:xlink="http://www.w3.org/1999/xlink" x="0px" y="0px"
	 viewBox="0 0 649.4 369.8" style="enable-background:new 0 0 649.4 369.8;" xml:space="preserve">
<g>
	<path d="M637.7,33.8c0,3,0,6,0,9c-2.6,6.8-4.8,13.8-8,20.3c-11.7,24.1-27.5,45.4-43.4,66.8c-14.7,19.7-29.5,39.4-43.8,59.4
		c-10.6,14.8-9.3,26.6,3.6,39.7c18.7,18.9,38.1,37.2,56.2,56.6c15.2,16.3,30.8,32.9,35.4,56.1c0,0.7,0,1.3,0,2
		c-4.1,12-9.9,16.5-22.5,17c-14,0.6-28,0.8-41.9,1.1c-17.5,0.4-35,1.5-52.4,1.1c-18.9-0.5-34.7-9.2-47.8-22.2
		c-12.2-12-23.3-25.1-34.9-37.7c-7.8-8.5-15.5-17-26.2-22c-5.7-2.7-11-2.4-16.2,1.8c-8.1,6.5-12.8,15.1-14.6,24.8
		c-1.9,9.8-2.8,19.7-3.3,29.7c-0.9,16.5-8.1,23.4-24.4,23.8c-12.3,0.3-24.7-0.2-37,0.1c-34.1,0.8-65.4-8.8-94.4-26.1
		c-21.8-13-43.2-26.8-59.9-46c-16.1-18.6-31.6-37.8-45.6-58c-16.6-24-32.2-48.9-46.6-74.3c-15.1-26.6-28.3-54.2-42.1-81.5
		C22,64.2,17,52.4,11.7,40.8c0-3,0-6,0-9c4.6-7.1,11.6-8.9,19.4-9c29.3-0.3,58.6-0.9,88-0.7c11.6,0.1,20.7,5.5,25.3,17
		c1.9,5,3.9,9.9,6.3,14.7c12.5,25.2,24.9,50.4,38,75.3c7.9,15,16.6,29.8,29.4,41.3c4.7,4.2,10.4,7.7,16.2,10.2
		c5.7,2.4,11-0.7,14.2-5.8c5.6-9.1,6.6-19.4,7.9-29.6c3.4-25.9,3.7-51.8-0.7-77.7c-1.7-10.1-3-21.1-12.8-27.2
		c-5.8-3.6-12.5-5.8-19.1-8.1c-4.7-1.6-5.9-3.3-2.3-6.6c5.3-4.8,11-10.2,17.5-12.6c8.4-3.1,17.8-4.3,26.8-5
		c13.9-1.1,28-1.7,41.9-1.3c15.9,0.5,31.9,1.7,47.7,3.7c10.8,1.3,19.1,7.1,21,18.9c1.2,7.2,2.5,14.5,2.4,21.7
		c-0.4,30.5-1.7,61-1.9,91.4c-0.1,8.7,1.3,17.7,4,26c3.8,11.8,15.1,16,24.4,6.3c4.5-4.7,9.8-8.6,13.9-13.6
		c21.6-26.8,38.9-56.4,53.7-87.4c5.8-12.2,10.8-24.7,16.1-37.1c4.1-9.5,9.7-13.6,18.8-13.6c14.8,0,29.7,0.1,44.5-0.1
		c20.5-0.2,41-1,61.4-0.8C623.1,22.4,633,23.2,637.7,33.8z"/>
</g>
</svg>
